<svg width="24" height="24" viewBox="0 0 24 24" fill="none" xmlns="http://www.w3.org/2000/svg">
<rect width="24" height="24" fill="#FECB2F"/>
<path d="M12.3409 5.00012C11.7282 5.00294 11.1431 5.05469 10.6282 5.14491C9.11162 5.41027 8.83626 5.96568 8.83626 6.98995V8.34269H12.4202V8.79361H7.49123C6.44963 8.79361 5.53758 9.41364 5.2523 10.5931C4.92324 11.9451 4.90864 12.7888 5.2523 14.2005C5.50706 15.2513 6.11547 16 7.15706 16H8.38931V14.3784C8.38931 13.2068 9.41282 12.1734 10.6282 12.1734H14.208C15.2045 12.1734 16 11.3609 16 10.3698V6.98995C16 6.02803 15.1806 5.30545 14.208 5.14491C13.5924 5.04341 12.9535 4.9973 12.3409 5.00012ZM10.4027 6.08811C10.7729 6.08811 11.0752 6.39241 11.0752 6.76656C11.0752 7.13938 10.7729 7.44086 10.4027 7.44086C10.0311 7.44086 9.73016 7.13938 9.73016 6.76656C9.73016 6.39241 10.0311 6.08811 10.4027 6.08811Z" fill="#181925"/>
<path d="M15.9048 9V10.422C15.9048 11.5244 14.9557 12.4522 13.8735 12.4522H10.6258C9.73615 12.4522 9 13.2021 9 14.0795V17.1286C9 17.9964 9.76625 18.5069 10.6258 18.7558C11.655 19.0539 12.642 19.1078 13.8735 18.7558C14.6921 18.5224 15.4993 18.0527 15.4993 17.1286V15.9082H12.2515V15.5014H17.125C18.07 15.5014 18.4221 14.8523 18.7508 13.8779C19.0903 12.8749 19.0758 11.9102 18.7508 10.6235C18.5172 9.69702 18.0712 9 17.125 9H15.9048ZM14.0781 16.7218C14.4152 16.7218 14.6883 16.9938 14.6883 17.3302C14.6883 17.6677 14.4152 17.9422 14.0781 17.9422C13.7423 17.9422 13.468 17.6677 13.468 17.3302C13.468 16.9938 13.7423 16.7218 14.0781 16.7218Z" fill="#181925"/>
</svg>
