<svg width="24" height="24" viewBox="0 0 24 24" fill="none" xmlns="http://www.w3.org/2000/svg">
<rect width="24" height="24" fill="#1E2650"/>
<path d="M12.0003 4.54858C7.89228 4.54858 4.54883 7.89361 4.54883 12C4.54883 16.1064 7.89385 19.4514 12.0003 19.4514C16.1067 19.4514 19.4517 16.1064 19.4517 12C19.4517 7.89361 16.1067 4.54858 12.0003 4.54858ZM11.9892 5.21065C12.1166 5.21395 12.2377 5.26706 12.3266 5.35864C12.4156 5.45022 12.4653 5.57304 12.4653 5.7009C12.4653 5.83092 12.4136 5.95562 12.3217 6.04756C12.2298 6.13949 12.1051 6.19115 11.975 6.19115C11.845 6.19115 11.7203 6.13949 11.6284 6.04756C11.5364 5.95562 11.4848 5.83092 11.4848 5.7009C11.4848 5.63531 11.4979 5.57038 11.5234 5.50995C11.5489 5.44953 11.5863 5.39484 11.6334 5.34913C11.6804 5.30341 11.7361 5.2676 11.7973 5.24382C11.8584 5.22003 11.9237 5.20875 11.9892 5.21065ZM13.1116 6.01775C13.9722 6.17895 14.7874 6.52556 15.5007 7.03351C16.2139 7.54146 16.8079 8.19858 17.2416 8.95922L16.6631 10.2644C16.5638 10.4899 16.6663 10.7547 16.8901 10.8556L18.003 11.349C18.0375 11.6969 18.0418 12.0471 18.0156 12.3957H17.3961C17.3346 12.3957 17.3094 12.4367 17.3094 12.4966V12.7803C17.3094 13.4487 16.9327 13.5953 16.6016 13.6315C16.2864 13.6678 15.938 13.4991 15.8939 13.3068C15.7078 12.2617 15.3989 12.0394 14.9102 11.6532C15.5171 11.2686 16.1476 10.6995 16.1476 9.93972C16.1476 9.11844 15.5849 8.60139 15.2018 8.3476C14.6627 7.99292 14.0669 7.92198 13.9061 7.92198H7.50607C8.39104 6.93336 9.57725 6.26407 10.881 6.01775L11.6361 6.80908C11.8064 6.9872 12.0885 6.99509 12.2667 6.82326L13.1116 6.01775ZM6.1441 9.64651C6.27165 9.65021 6.39273 9.70348 6.48162 9.79503C6.57051 9.88657 6.62021 10.0092 6.62016 10.1368C6.62016 10.2668 6.56851 10.3915 6.47657 10.4834C6.38463 10.5754 6.25993 10.627 6.12991 10.627C5.99989 10.627 5.87519 10.5754 5.78326 10.4834C5.69132 10.3915 5.63967 10.2668 5.63967 10.1368C5.63964 10.0712 5.65277 10.0062 5.67829 9.94582C5.70381 9.88539 5.7412 9.8307 5.78823 9.78499C5.83527 9.73928 5.891 9.70347 5.95213 9.67968C6.01326 9.65589 6.07854 9.64462 6.1441 9.64651ZM17.8328 9.66858C17.9603 9.67228 18.0814 9.72555 18.1703 9.81709C18.2592 9.90864 18.3089 10.0312 18.3088 10.1588C18.3088 10.2889 18.2572 10.4135 18.1652 10.5055C18.0733 10.5974 17.9486 10.6491 17.8186 10.6491C17.6886 10.6491 17.5639 10.5974 17.4719 10.5055C17.38 10.4135 17.3283 10.2889 17.3283 10.1588C17.3283 10.0932 17.3414 10.0283 17.367 9.96789C17.3925 9.90746 17.4299 9.85277 17.4769 9.80706C17.5239 9.76135 17.5797 9.72554 17.6408 9.70175C17.7019 9.67796 17.7672 9.66669 17.8328 9.66858ZM7.06784 9.7474H7.92223V13.6H6.1977C5.98471 12.8521 5.91834 12.0701 6.00223 11.297L7.05838 10.8272C7.2838 10.7263 7.38627 10.4631 7.28538 10.2376L7.06784 9.7474ZM10.6336 9.78839H12.6686C12.7742 9.78839 13.4111 9.90977 13.4111 10.3874C13.4111 10.7831 12.9224 10.9249 12.5205 10.9249H10.632L10.6336 9.78839ZM10.6336 12.5565H12.1926C12.3344 12.5565 12.954 12.5975 13.151 13.3888C13.2125 13.6315 13.3496 14.4229 13.4426 14.6767C13.5356 14.9604 13.9124 15.5279 14.3143 15.5279H16.8586C16.6881 15.7562 16.5016 15.9722 16.3006 16.1742L15.2649 15.9519C15.0237 15.8999 14.7857 16.0544 14.7337 16.2956L14.4877 17.4432C13.697 17.8014 12.8382 17.9847 11.9701 17.9806C11.102 17.9765 10.245 17.7852 9.4576 17.4195L9.21169 16.2719C9.15967 16.0308 8.92321 15.8763 8.68203 15.9283L7.66843 16.1458C7.48034 15.9518 7.3055 15.7454 7.14508 15.5279H12.0743C12.1295 15.5279 12.1674 15.5184 12.1674 15.4664V13.723C12.1674 13.6725 12.1295 13.6615 12.0743 13.6615H10.632L10.6336 12.5565ZM8.35888 16.5494C8.48642 16.5531 8.60751 16.6063 8.6964 16.6979C8.78529 16.7894 8.83499 16.912 8.83494 17.0396C8.83494 17.1696 8.78329 17.2943 8.69135 17.3863C8.59941 17.4782 8.47471 17.5299 8.34469 17.5299C8.21467 17.5299 8.08997 17.4782 7.99803 17.3863C7.90609 17.2943 7.85444 17.1696 7.85444 17.0396C7.85442 16.974 7.86755 16.9091 7.89307 16.8487C7.91859 16.7882 7.95598 16.7336 8.00301 16.6878C8.05005 16.6421 8.10578 16.6063 8.16691 16.5825C8.22803 16.5588 8.29331 16.5475 8.35888 16.5494ZM15.618 16.5714C15.7455 16.5751 15.8666 16.6284 15.9555 16.72C16.0444 16.8115 16.0941 16.9341 16.094 17.0617C16.094 17.1917 16.0424 17.3164 15.9505 17.4083C15.8585 17.5003 15.7338 17.5519 15.6038 17.5519C15.4738 17.5519 15.3491 17.5003 15.2571 17.4083C15.1652 17.3164 15.1136 17.1917 15.1136 17.0617C15.1135 16.9961 15.1267 16.9312 15.1522 16.8707C15.1777 16.8103 15.2151 16.7556 15.2621 16.7099C15.3092 16.6642 15.3649 16.6284 15.426 16.6046C15.4871 16.5808 15.5524 16.5695 15.618 16.5714Z" fill="white"/>
<path fill-rule="evenodd" clip-rule="evenodd" d="M19.0353 12C19.0353 13.8659 18.2941 15.6553 16.9747 16.9747C15.6553 18.2941 13.8659 19.0353 12 19.0353C10.1341 19.0353 8.34468 18.2941 7.02531 16.9747C5.70594 15.6553 4.96473 13.8659 4.96473 12C4.96473 10.1341 5.70594 8.34468 7.02531 7.02531C8.34468 5.70594 10.1341 4.96473 12 4.96473C13.8659 4.96473 15.6553 5.70594 16.9747 7.02531C18.2941 8.34468 19.0353 10.1341 19.0353 12ZM18.9029 11.3206L20 12L18.9029 12.6794L19.8455 13.5606L18.638 14.013L19.3915 15.0613L18.1163 15.2694L18.6522 16.4453L17.3612 16.3996L17.6575 17.6575L16.3996 17.3612L16.4453 18.6522L15.2694 18.1163L15.0613 19.3915L14.013 18.638L13.5606 19.8455L12.6794 18.9029L12 20L11.3206 18.9029L10.4394 19.8455L9.98699 18.638L8.93872 19.3915L8.73064 18.1163L7.55468 18.6522L7.60039 17.3612L6.34246 17.6575L6.63882 16.3996L5.34778 16.4453L5.88374 15.2694L4.60847 15.0613L5.36197 14.013L4.15448 13.5606L5.09714 12.6794L4 12L5.09714 11.3206L4.15448 10.4394L5.36197 9.98699L4.60847 8.93872L5.88374 8.73064L5.34778 7.55468L6.63882 7.60039L6.34246 6.34246L7.60039 6.63882L7.55468 5.34778L8.73064 5.88374L8.93872 4.60847L9.98699 5.36197L10.4394 4.15448L11.3206 5.09714L12 4L12.6794 5.09714L13.5606 4.15448L14.013 5.36197L15.0613 4.60847L15.2694 5.88374L16.4453 5.34778L16.3996 6.63882L17.6575 6.34246L17.3612 7.60039L18.6522 7.55468L18.1163 8.73064L19.3915 8.93872L18.638 9.98699L19.8455 10.4394L18.9029 11.3206Z" fill="white" stroke="white" stroke-width="0.472906" stroke-linecap="round" stroke-linejoin="round"/>
</svg>
