<svg width="24" height="24" viewBox="0 0 24 24" fill="none" xmlns="http://www.w3.org/2000/svg">
<rect width="24" height="24" fill="#59FDA0"/>
<path d="M17.4375 6C17.7481 6 17.9999 6.2519 18 6.5625V17.4375C18 17.7481 17.7481 18 17.4375 18H6.5625C6.25205 17.9998 6.00001 17.748 6 17.4375V6.5625C6.00007 6.25205 6.25208 6.00023 6.5625 6H17.4375ZM15.2451 10.875C14.9338 10.875 14.6389 10.9085 14.3604 10.9756C14.0819 11.0427 13.8366 11.1467 13.625 11.2891C13.4133 11.4315 13.2459 11.6135 13.123 11.834C13.0001 12.0545 12.9385 12.3182 12.9385 12.625C12.9385 13.0167 13.051 13.3513 13.2764 13.6279C13.5017 13.9045 13.844 14.1384 14.3027 14.3301C14.4829 14.404 14.651 14.4767 14.8066 14.5479C14.9621 14.619 15.0967 14.6929 15.21 14.7695C15.3233 14.8462 15.413 14.9301 15.4785 15.0205C15.5441 15.1109 15.5771 15.214 15.5771 15.3291C15.5771 15.4139 15.5565 15.493 15.5156 15.5654C15.4747 15.6378 15.4123 15.7006 15.3291 15.7539C15.2458 15.8073 15.1418 15.8488 15.0176 15.8789C14.8933 15.909 14.7476 15.9248 14.5811 15.9248C14.2972 15.9248 14.0157 15.8744 13.7373 15.7744C13.4588 15.6745 13.2004 15.5241 12.9629 15.3242V16.6396C13.1758 16.7491 13.4281 16.831 13.7188 16.8857C14.0096 16.9406 14.3165 16.9678 14.6387 16.9678C14.9528 16.9678 15.2515 16.9382 15.5342 16.8779C15.8167 16.8177 16.0644 16.7183 16.2773 16.5801C16.4903 16.4417 16.6589 16.2604 16.7832 16.0371C16.9073 15.814 16.9697 15.5384 16.9697 15.21C16.9697 14.9717 16.9342 14.7624 16.8633 14.583C16.7922 14.4036 16.6895 14.2442 16.5557 14.1045C16.422 13.9649 16.262 13.8394 16.0752 13.7285C15.8881 13.6176 15.6763 13.5127 15.4414 13.4141C15.2695 13.3429 15.115 13.2731 14.9785 13.2061C14.8422 13.139 14.7263 13.0707 14.6309 13.001C14.5353 12.9311 14.4611 12.8574 14.4092 12.7793C14.3573 12.7012 14.332 12.6123 14.332 12.5137C14.3321 12.4234 14.355 12.342 14.4014 12.2695C14.4477 12.1971 14.5132 12.135 14.5977 12.083C14.6823 12.031 14.7863 11.9897 14.9092 11.9609C15.0321 11.9322 15.1691 11.918 15.3193 11.918C15.4285 11.918 15.5437 11.926 15.665 11.9424C15.7865 11.9588 15.9093 11.9843 16.0322 12.0186C16.155 12.0528 16.2746 12.0964 16.3906 12.1484C16.5066 12.2005 16.6137 12.2607 16.7119 12.3291V11.1006C16.5126 11.0239 16.2948 10.9667 16.0586 10.9297C15.8223 10.8927 15.5511 10.875 15.2451 10.875ZM7.68848 12.0518H9.39551V16.874H10.7549V12.0518H12.4697V10.9688H7.68848V12.0518Z" fill="#181925"/>
</svg>
