<svg preserveAspectRatio="none" overflow="visible" style="display: block;" width="20" height="20" viewBox="0 0 20 20" fill="none" xmlns="http://www.w3.org/2000/svg">
<g id="tenuo">
<g id="tenuo_2">
<path d="M2.7628 8.14168V9.13444H0V8.14168H2.7628ZM0.627231 7H1.89961V11.4426C1.89961 11.5646 1.91753 11.6598 1.95338 11.728C1.98922 11.7942 2.039 11.8407 2.10272 11.8676C2.16843 11.8945 2.24409 11.908 2.32971 11.908C2.38945 11.908 2.44919 11.9028 2.50892 11.8925C2.56866 11.88 2.61446 11.8707 2.64632 11.8645L2.84643 12.848C2.78271 12.8687 2.69311 12.8925 2.57762 12.9193C2.46213 12.9483 2.32175 12.9659 2.15648 12.9721C1.84983 12.9845 1.58102 12.9421 1.35004 12.8449C1.12105 12.7477 0.942837 12.5967 0.8154 12.3919C0.687963 12.1872 0.62524 11.9286 0.627231 11.6163V7Z" fill="white"/>
<path d="M4.79204 13C4.32013 13 3.91392 12.9007 3.57342 12.7022C3.23492 12.5016 2.97407 12.2182 2.79088 11.8521C2.60769 11.484 2.51609 11.0486 2.51609 10.546C2.51609 10.0558 2.60769 9.62565 2.79088 9.25543C2.97407 8.88521 3.23193 8.59669 3.56446 8.38987C3.89899 8.18304 4.29125 8.07963 4.74127 8.07963C5.04393 8.07963 5.32569 8.1303 5.58654 8.23164C5.84937 8.33092 6.07836 8.48087 6.2735 8.68149C6.47063 8.88211 6.62396 9.13444 6.73347 9.43847C6.84299 9.74043 6.89775 10.0941 6.89775 10.4995V10.8625H3.02385V10.0434H5.70003C5.70003 9.85315 5.66021 9.68459 5.58056 9.53775C5.50091 9.3909 5.3904 9.27611 5.24903 9.19338C5.10964 9.10858 4.94736 9.06618 4.76217 9.06618C4.56903 9.06618 4.39778 9.11272 4.24844 9.20579C4.10109 9.29679 3.9856 9.41985 3.90197 9.57497C3.81834 9.72802 3.77553 9.89866 3.77354 10.0869V10.8656C3.77354 11.1013 3.81536 11.3051 3.89899 11.4767C3.98461 11.6484 4.10508 11.7808 4.26039 11.8738C4.4157 11.9669 4.59989 12.0134 4.81295 12.0134C4.95433 12.0134 5.08376 11.9928 5.20124 11.9514C5.31872 11.91 5.41927 11.848 5.5029 11.7653C5.58654 11.6825 5.65025 11.5812 5.69406 11.4612L6.87087 11.5419C6.81113 11.8356 6.68867 12.092 6.50349 12.3113C6.3203 12.5284 6.08334 12.698 5.79263 12.8201C5.5039 12.94 5.17037 13 4.79204 13Z" fill="white"/>
<path d="M8.15938 10.152V12.9069H6.88699V8.14168H8.09964V8.98242H8.1534C8.25495 8.70527 8.4252 8.48604 8.66415 8.32472C8.90309 8.16132 9.19281 8.07963 9.53331 8.07963C9.8519 8.07963 10.1297 8.15202 10.3666 8.29679C10.6036 8.44157 10.7878 8.6484 10.9192 8.91727C11.0506 9.18407 11.1163 9.50259 11.1163 9.8728V12.9069H9.84394V10.1086C9.84593 9.81696 9.77425 9.58945 9.62889 9.42606C9.48353 9.2606 9.28341 9.17787 9.02854 9.17787C8.85729 9.17787 8.70596 9.21613 8.57454 9.29266C8.44511 9.36918 8.34356 9.48087 8.26989 9.62771C8.1982 9.77249 8.16137 9.94726 8.15938 10.152Z" fill="white"/>
<path d="M14.2201 10.878V8.14168H15.4925V12.9069H14.2708V12.0414H14.2231C14.1195 12.3206 13.9473 12.545 13.7063 12.7146C13.4674 12.8842 13.1757 12.969 12.8312 12.969C12.5246 12.969 12.2547 12.8966 12.0218 12.7518C11.7888 12.607 11.6066 12.4012 11.4752 12.1344C11.3458 11.8676 11.28 11.5481 11.2781 11.1758V8.14168H12.5504V10.94C12.5524 11.2213 12.6251 11.4436 12.7685 11.607C12.9118 11.7704 13.104 11.8521 13.3449 11.8521C13.4983 11.8521 13.6416 11.8159 13.775 11.7435C13.9084 11.6691 14.016 11.5595 14.0976 11.4147C14.1812 11.2699 14.2221 11.091 14.2201 10.878Z" fill="white"/>
<path d="M17.742 13C17.278 13 16.8768 12.8976 16.5383 12.6929C16.2018 12.486 15.9419 12.1986 15.7587 11.8304C15.5755 11.4602 15.4839 11.031 15.4839 10.5429C15.4839 10.0507 15.5755 9.62048 15.7587 9.25233C15.9419 8.88211 16.2018 8.59462 16.5383 8.38987C16.8768 8.18304 17.278 8.07963 17.742 8.07963C18.2059 8.07963 18.6062 8.18304 18.9427 8.38987C19.2812 8.59462 19.542 8.88211 19.7252 9.25233C19.9084 9.62048 20 10.0507 20 10.5429C20 11.031 19.9084 11.4602 19.7252 11.8304C19.542 12.1986 19.2812 12.486 18.9427 12.6929C18.6062 12.8976 18.2059 13 17.742 13ZM17.7479 11.9762C17.959 11.9762 18.1352 11.9142 18.2766 11.7901C18.418 11.6639 18.5245 11.4922 18.5962 11.2751C18.6699 11.0579 18.7067 10.8108 18.7067 10.5336C18.7067 10.2565 18.6699 10.0093 18.5962 9.79214C18.5245 9.57497 18.418 9.40331 18.2766 9.27715C18.1352 9.15098 17.959 9.0879 17.7479 9.0879C17.5349 9.0879 17.3557 9.15098 17.2103 9.27715C17.0669 9.40331 16.9584 9.57497 16.8848 9.79214C16.8131 10.0093 16.7772 10.2565 16.7772 10.5336C16.7772 10.8108 16.8131 11.0579 16.8848 11.2751C16.9584 11.4922 17.0669 11.6639 17.2103 11.7901C17.3557 11.9142 17.5349 11.9762 17.7479 11.9762Z" fill="white"/>
</g>
</g>
</svg>
