<?xml version="1.0" encoding="UTF-8"?>
<svg width="1200px" height="1200px" viewBox="0 0 1200 1200" xmlns="http://www.w3.org/2000/svg" xmlns:xlink="http://www.w3.org/1999/xlink" version="1.1">
 <path id="Rectangle" d="M-57 1439 L1279 1439 1279 -37 -57 -37 Z" fill="#000000" fill-opacity="1" stroke="none"/>
 <path id="Path" d="M789.796 410.694 C764.208 219.009 699.452 59 599.99 59 500.528 59 435.772 219.009 410.184 410.694 218.499 436.282 58.49 501.038 58.49 600.5 58.49 699.962 218.527 764.718 410.184 790.305 435.772 981.963 500.528 1142 599.99 1142 699.452 1142 764.208 981.963 789.796 790.305 981.481 764.718 1141.49 699.962 1141.49 600.5 1141.49 501.038 981.453 436.282 789.796 410.694 Z M403.928 734.472 C220.351 707.958 113.285 647.271 113.285 600.5 113.285 553.729 220.351 493.042 403.928 466.528 399.888 510.718 397.783 555.833 397.783 600.5 397.783 645.167 399.888 690.31 403.928 734.472 Z M599.99 113.795 C646.761 113.795 707.448 220.861 733.962 404.438 689.8 400.398 644.657 398.293 599.99 398.293 555.323 398.293 510.18 400.398 466.018 404.438 492.532 220.861 553.219 113.795 599.99 113.795 Z M796.052 734.472 C787.018 735.791 749.955 740.14 740.584 741.065 739.658 750.464 735.281 787.5 733.99 796.534 707.476 980.111 646.789 1087.177 600.018 1087.177 553.247 1087.177 492.56 980.111 466.046 796.534 464.755 787.5 460.378 750.437 459.453 741.065 455.188 697.549 452.607 650.806 452.607 600.5 452.607 550.194 455.188 503.451 459.453 459.906 502.969 455.642 549.712 453.06 600.018 453.06 650.324 453.06 697.067 455.642 740.584 459.906 749.983 460.832 787.018 465.209 796.052 466.5 979.629 493.014 1086.723 553.729 1086.723 600.472 1086.723 647.215 979.629 707.958 796.052 734.472 Z" fill="#FFFFFF" fill-opacity="1" stroke="none"/>
</svg>
